<?xml version="1.0" standalone="no"?><!DOCTYPE svg PUBLIC "-//W3C//DTD SVG 1.1//EN" "http://www.w3.org/Graphics/SVG/1.1/DTD/svg11.dtd"><svg t="1527560191514" class="icon" style="" viewBox="0 0 1024 1024" version="1.1" xmlns="http://www.w3.org/2000/svg" p-id="741" xmlns:xlink="http://www.w3.org/1999/xlink" width="81" height="81"><defs><style type="text/css"></style></defs><path d="M546.13333333 477.86666667h136.53333334v68.26666666h-136.53333334zM341.33333333 477.86666667h136.53333334v68.26666666h-136.53333334z" p-id="742" fill="#ff7d29"></path><path d="M955.73333333 379.76746667c10.92266667-2.816 34.13333333-4.3008 34.13333334-38.43413334V170.66666667a68.26666667 68.26666667 0 0 0-68.26666667-68.26666667H102.4a68.26666667 68.26666667 0 0 0-68.26666667 68.26666667v170.66666666c0 34.13333333 24.14933333 35.75466667 35.44746667 38.77546667a136.58453333 136.58453333 0 0 1-2.01386667 264.2944C56.86613333 647.09973333 34.13333333 648.53333333 34.13333333 682.66666667v170.66666666a68.26666667 68.26666667 0 0 0 68.26666667 68.26666667h819.2a68.26666667 68.26666667 0 0 0 68.26666667-68.26666667V682.66666667c0-34.13333333-22.9888-35.60106667-33.792-38.3488A136.61866667 136.61866667 0 0 1 853.33333333 512a136.61866667 136.61866667 0 0 1 102.4-132.23253333zM307.2 819.2a34.13333333 34.13333333 0 0 1-24.13226667-58.2656L429.58506667 614.4H307.2a34.13333333 34.13333333 0 0 1-34.13333333-34.13333333v-136.53333334a34.13333333 34.13333333 0 0 1 34.13333333-34.13333333h190.6688l68.26666667-68.26666667H375.46666667a34.13333333 34.13333333 0 0 1-24.13226667-58.2656l68.26666667-68.26666666a34.13333333 34.13333333 0 1 1 48.26453333 48.26453333l-9.984 10.00106667H648.53333333a34.13333333 34.13333333 0 0 1 24.13226667 58.2656L594.39786667 409.6H716.8a34.13333333 34.13333333 0 0 1 34.13333333 34.13333333v136.53333334a34.13333333 34.13333333 0 0 1-34.13333333 34.13333333H526.1312L331.33226667 809.19893333A33.96266667 33.96266667 0 0 1 307.2 819.2z m443.73333333 0H546.13333333a34.13333333 34.13333333 0 0 1-34.13333333-34.13333333v-102.4a34.13333333 34.13333333 0 0 1 68.26666667 0v68.26666666h170.66666666a34.13333333 34.13333333 0 0 1 0 68.26666667z" p-id="743" fill="#ff7d29"></path></svg>