<?xml version="1.0" standalone="no"?><!DOCTYPE svg PUBLIC "-//W3C//DTD SVG 1.1//EN" "http://www.w3.org/Graphics/SVG/1.1/DTD/svg11.dtd"><svg t="1529585693617" class="icon" style="" viewBox="0 0 1024 1024" version="1.1" xmlns="http://www.w3.org/2000/svg" p-id="947" xmlns:xlink="http://www.w3.org/1999/xlink" width="81" height="81"><defs><style type="text/css"></style></defs><path d="M891.78066409 836.58007813L566.23466797 511.0332031l325.62685546-325.62773435c7.70625001-7.70273438 11.99355463-18.21708985 11.76328126-28.84570313-0.22060547-10.20234374-4.42705078-19.58466797-11.84765625-26.42958984-7.57705078-7.53574219-17.49199219-11.68330079-27.92988283-11.68330076h-0.0017578c-10.52753906 0-20.20166013 4.20820313-27.25400391 11.84941403l-325.54775389 325.54687501L185.41513674 130.21455075c-7.58847655-7.58935546-17.53857422-11.76855469-28.01601565-11.76855465h-0.00087889c-10.52841797 0-20.20429689 4.20996093-27.25839845 11.85380858-7.6517578 7.69921875-11.90390621 18.17929687-11.67275393 28.7709961 0.22236327 10.19882811 4.42705078 19.57412108 11.84062502 26.41464845l325.54687502 325.54687499L130.22509767 836.6626953c-7.70361328 7.70712891-11.98916016 18.22236327-11.75888673 28.85009768 0.22236327 10.19970703 4.42792967 19.57939453 11.84414061 26.42255856 7.37138671 7.32216797 17.64580078 11.68945313 27.50976564 11.68945315 9.90615234 0 20.22275393-4.4015625 27.59501955-11.77382816l325.62861327-325.62685543 325.62949218 325.62685543c7.37314454 7.37314454 17.68798828 11.77382811 27.59414062 11.77382816s20.22275393-4.4015625 27.59414062-11.77294921c7.70625001-7.70361328 11.99355463-18.21796876 11.76328126-28.84570314-0.22060547-10.20146484-4.42529297-19.58115233-11.8441406-26.42607421z" fill="#ffffff" p-id="948"></path></svg>