<?xml version="1.0" standalone="no"?><!DOCTYPE svg PUBLIC "-//W3C//DTD SVG 1.1//EN" "http://www.w3.org/Graphics/SVG/1.1/DTD/svg11.dtd"><svg t="1528429700243" class="icon" style="" viewBox="0 0 1024 1024" version="1.1" xmlns="http://www.w3.org/2000/svg" p-id="888" xmlns:xlink="http://www.w3.org/1999/xlink" width="81" height="81"><defs><style type="text/css"></style></defs><path d="M511.77244445 41.52888889c-190.00888889 0-361.472 114.46044445-434.176 290.01955556-72.704 175.55911111-32.54044445 377.74222222 101.8311111 512.11377777C313.79911111 978.03377778 515.86844445 1018.31111111 691.54133333 945.49333333c175.55911111-72.704 290.13333333-244.05333333 290.13333334-434.176 0.11377778-259.41333333-210.26133333-469.78844445-469.90222222-469.78844444z m0 898.73066666C275.56977778 939.80444445 84.42311111 748.08888889 84.53688889 512c0.11377778-236.20266667 191.488-427.69066667 427.80444444-427.80444445 236.20266667 0 427.80444445 191.14666667 428.14577778 427.34933334 0.22755555 113.77777778-44.94222222 222.89066667-125.38311111 303.33155556-80.32711111 80.44088889-189.44 125.61066667-303.33155555 125.3831111z m0 0" fill="#32a72c" p-id="889"></path><path d="M737.62133333 549.888H281.94133333c-31.85777778 0-62.12266667 33.10933333-62.12266666 64.73955555v265.10222223c33.10933333 26.28266667 69.17688889 47.67288889 107.17866666 63.82933333h369.43644445c37.43288889-16.04266667 72.02133333-36.52266667 103.31022222-60.75733333V613.48977778c-0.56888889-31.17511111-30.49244445-63.60177778-62.12266667-63.60177778zM551.36711111 819.2c0 22.86933333-18.54577778 41.41511111-41.41511111 41.41511111-22.86933333 0-41.41511111-18.54577778-41.41511111-41.41511111V694.95466667c0-22.86933333 18.54577778-41.41511111 41.41511111-41.41511112 22.86933333 0 41.41511111 18.54577778 41.41511111 41.41511112V819.2zM799.97155555 614.51377778v-20.82133333l-0.11377777 19.68355555c0 0.45511111 0.11377778 0.91022222 0.11377777 1.13777778zM344.17777778 508.47288889c0-91.93244445 71.79377778-170.66666667 162.58844444-170.66666667 90.56711111 0 168.84622222 78.73422222 168.84622223 170.66666667h62.12266666c0-110.36444445-109.90933333-227.89688889-231.08266666-227.89688889S282.05511111 398.10844445 282.05511111 508.47288889h62.12266667z" fill="#32a72c" p-id="890"></path></svg>