<?xml version="1.0" standalone="no"?><!DOCTYPE svg PUBLIC "-//W3C//DTD SVG 1.1//EN" "http://www.w3.org/Graphics/SVG/1.1/DTD/svg11.dtd"><svg t="1527575770253" class="icon" style="" viewBox="0 0 1024 1024" version="1.1" xmlns="http://www.w3.org/2000/svg" p-id="2677" xmlns:xlink="http://www.w3.org/1999/xlink" width="81" height="81"><defs><style type="text/css"></style></defs><path d="M304.91240427 66.4245504L603.5038208 66.4245504c48.930464 0 70.89138133 35.44569067 90.540624 66.65330987 1.15583787 1.92639573 2.69695467 3.85279253 4.23807147 5.77918825 1.92639573 2.69695467 3.4675136 5.0086304 5.00863041 6.93502721L842.76223359 353.0723104c29.6665024 43.92183467 18.1081248 104.02539733-26.19898879 133.69189867-15.79644907 10.78781867-34.2898528 16.181728-53.55381546 16.18172906-22.34619628 0-43.92183467-7.70558507-60.87412054-21.5756384L702.1353088 852.39421547c0 53.16853654-41.22488 96.31981227-91.6964608 96.3198112-50.47158187 0-91.6964608-43.15127573-91.6964608-96.31981119l0-132.15078187c-11.94365653 7.32030613-25.42842988 11.5583776-39.6837632 11.55837759-28.1253856 0-53.16853653-15.41117013-68.5797056-40.06904213-14.6406112 12.32893548-32.36345707 19.6492416-50.8568608 19.64924161-33.51929494 0-63.57107627-23.1167552-76.67057067-56.63604908-10.40253972 5.0086304-21.57563733 7.70558507-33.13401493 7.70558507-46.61878934 0-84.37615573-43.15127573-84.37615467-96.31981227l0-290.88583147c-0.38527893-105.56651413 79.75280427-208.82135253 139.47108694-208.82135253m458.48230506 398.76402133c11.5583776 0 22.7314752-3.4675136 31.97817707-9.63198186 26.58426773-17.72284587 33.51929493-53.55381547 15.79644907-80.1380832l-139.47108694-207.28023467c-1.15583787-1.92639573-2.69695467-3.85279253-4.23807253-6.16446827-1.5411168-2.31167572-3.0822336-4.62335148-4.6233504-6.5497472l-0.38527893-0.77055893c-21.1903584-33.90457387-33.13401493-48.93046401-58.17716694-48.930464l-298.59141653-1e-8c-32.748736 0-101.3284416 80.5233632-101.32844267 169.90814827l0 290.88583147c0 31.2076192 21.1903584 57.79188694 45.8482304 57.79188694 11.17309868 0 21.96091733-5.39390933 30.82234027-15.02589014l30.43706027-34.28985279 3.4675136 45.46295039c2.31167573 29.28122241 22.34619627 52.39797761 45.8482304 52.3979776 15.41117012 0 30.43706027-10.40253973 38.91320426-27.3548256l24.65787094-49.70102293 11.5583776 54.32437333c5.39390933 25.04315093 23.88731307 43.53655467 44.3071136 43.53655467 16.95228692 0 33.13401493-12.71421547 41.22488-32.363456l36.98680746-92.46701973L558.42614933 852.39421547c0 31.97817708 23.88731307 57.79188693 53.16853654 57.79188693 29.2812224 0 53.16853653-25.81370987 53.16853546-57.79188693l0-488.5340864L715.2348032 439.7601408c10.78781867 15.79644907 28.51066453 25.42842987 48.15990613 25.42843093" fill="#CC0000" p-id="2678"></path><path d="M557.27031147 702.1353088l-38.52792426 0-1e-8-134.4624576 38.52792427 0zM433.2103936 679.0185536l-38.52792426 0-1e-8-134.4624576 38.52792427 0zM313.00326827 642.03174613l-38.52792427 0 0-134.4624576 38.52792427-1e-8z" fill="#CC0000" p-id="2679"></path></svg>