<?xml version="1.0" standalone="no"?><!DOCTYPE svg PUBLIC "-//W3C//DTD SVG 1.1//EN" "http://www.w3.org/Graphics/SVG/1.1/DTD/svg11.dtd"><svg t="1527574819489" class="icon" style="" viewBox="0 0 1024 1024" version="1.1" xmlns="http://www.w3.org/2000/svg" p-id="1014" xmlns:xlink="http://www.w3.org/1999/xlink" width="81" height="81"><defs><style type="text/css"></style></defs><path d="M512.000512 895.41339c-13.06148 0-25.27157-5.022387-34.391275-14.142092L181.871699 595.960227c-0.419556-0.336668-114.000404-100.614535-114.000404-226.264257 0-148.719136 94.200452-241.10936 245.850337-241.10936 80.160691 0 154.449651 54.807257 198.278879 95.16236 43.828204-40.355103 118.116141-95.16236 198.277856-95.16236 151.648862 0 245.849314 92.390223 245.849314 241.10936 0 109.210307-86.964654 200.900589-113.616664 226.40445L546.136983 881.522008C537.269012 890.391003 525.059945 895.41339 512.000512 895.41339zM313.721633 166.82347c-131.943055 0-207.613478 73.944106-207.613478 202.8725 0 105.794511 100.586906 197.204407 101.604072 198.100824L504.40144 853.993025c2.799766 2.798742 5.946432 3.182482 7.599072 3.182482 1.650593 0 4.797259-0.38374 7.355525-2.940982l295.765167-284.851607c24.840758-23.768333 102.770642-105.626689 102.770642-199.687972 0-128.928395-75.670423-202.8725-207.613478-202.8725-75.401294 0-148.177807 60.735269-184.844915 96.936773l-13.43294 13.266142-13.43294-13.266142C461.897394 227.557716 389.12088 166.82347 313.721633 166.82347z" p-id="1015" fill="#0099CC"></path></svg>