<?xml version="1.0" standalone="no"?><!DOCTYPE svg PUBLIC "-//W3C//DTD SVG 1.1//EN" "http://www.w3.org/Graphics/SVG/1.1/DTD/svg11.dtd"><svg t="1526291340793" class="icon" style="" viewBox="0 0 1024 1024" version="1.1" xmlns="http://www.w3.org/2000/svg" p-id="726" xmlns:xlink="http://www.w3.org/1999/xlink" width="81" height="81"><defs><style type="text/css"></style></defs><path d="M998.4 829.952c0 93.03552-75.41248 168.448-168.448 168.448H204.288C111.25248 998.4 35.84 922.98752 35.84 829.952V204.288C35.84 111.25248 111.25248 35.84 204.288 35.84h625.664C922.98752 35.84 998.4 111.25248 998.4 204.288v625.664z m-211.77856-371.84h-196.02432l261.632-261.632H721.408L525.184 392.704 328.96 196.48H198.144l261.632 261.632H263.35744v65.408H459.776v130.816H263.35744v65.408h196.224v130.816h130.816v-130.816h196.224V654.336h-196.224v-130.816h196.224V458.112z" fill="#F10215" p-id="727"></path></svg>